<svg width="54" height="54" viewBox="0 0 54 54" fill="none" xmlns="http://www.w3.org/2000/svg">
<path d="M36 33.75C36 37.4715 39.0285 40.5 42.75 40.5C46.4715 40.5 49.5 37.4715 49.5 33.75C49.5 30.0285 46.4715 27 42.75 27C39.0285 27 36 30.0285 36 33.75ZM47.25 33.75C47.25 36.2318 45.2318 38.25 42.75 38.25C40.2682 38.25 38.25 36.2318 38.25 33.75C38.25 31.2682 40.2682 29.25 42.75 29.25C45.2318 29.25 47.25 31.2682 47.25 33.75ZM53.9932 52.749C54.0098 52.8959 53.9973 53.0445 53.9563 53.1865C53.9154 53.3285 53.847 53.4611 53.7548 53.5766C53.6627 53.6922 53.5487 53.7884 53.4193 53.8599C53.29 53.9314 53.1479 53.9767 53.001 53.9932C52.8541 54.0098 52.7055 53.9973 52.5635 53.9563C52.4215 53.9154 52.2889 53.847 52.1734 53.7548C51.94 53.5687 51.7902 53.2976 51.7568 53.001C51.2415 48.4403 47.367 45 42.75 45C38.133 45 34.2607 48.4403 33.7432 53.001C33.7082 53.2971 33.5575 53.5674 33.324 53.7529C33.0905 53.9384 32.7931 54.024 32.4967 53.991C32.35 53.9745 32.2079 53.9292 32.0786 53.8577C31.9494 53.7862 31.8355 53.6899 31.7435 53.5743C31.6516 53.4587 31.5833 53.3261 31.5427 53.1841C31.5021 53.0421 31.4898 52.8935 31.5068 52.7467C32.1548 47.0453 36.9878 42.7477 42.75 42.7477C48.5122 42.7477 53.3452 47.0475 53.9932 52.749ZM4.5 26.2103V43.875C4.5 48.2175 8.0325 51.75 12.375 51.75H25.875C26.1734 51.75 26.4595 51.8685 26.6705 52.0795C26.8815 52.2905 27 52.5766 27 52.875C27 53.1734 26.8815 53.4595 26.6705 53.6705C26.4595 53.8815 26.1734 54 25.875 54H12.375C9.6906 53.997 7.11699 52.9293 5.21883 51.0312C3.32067 49.133 2.25298 46.5594 2.25 43.875V24.75C2.25 24.7118 2.268 24.6803 2.27025 24.6443C0.815603 23.1757 -0.000309425 21.1921 8.8027e-08 19.125C8.8027e-08 19.0103 5.67675 0.789751 5.67675 0.789751C5.74787 0.560762 5.89042 0.360556 6.08355 0.218445C6.27667 0.0763337 6.51022 -0.000217202 6.75 4.62895e-07H47.25C47.7427 4.62895e-07 48.177 0.3195 48.3255 0.789751C48.3255 0.789751 54 19.0103 54 19.125C53.9997 20.2328 53.7656 21.328 53.3132 22.3391C52.8607 23.3503 52.2 24.2546 51.3743 24.993C51.1501 25.1787 50.8628 25.2702 50.5726 25.2485C50.2823 25.2267 50.0118 25.0934 49.8179 24.8764C49.6239 24.6594 49.5216 24.3757 49.5324 24.0849C49.5432 23.7941 49.6662 23.5187 49.8757 23.3167C50.4446 22.807 50.9038 22.1869 51.2256 21.4941C51.5474 20.8014 51.7251 20.0505 51.7477 19.287L46.4242 2.24775H38.25V10.1228C38.25 10.4211 38.1315 10.7073 37.9205 10.9182C37.7095 11.1292 37.4234 11.2478 37.125 11.2478C36.8266 11.2478 36.5405 11.1292 36.3295 10.9182C36.1185 10.7073 36 10.4211 36 10.1228V2.25H18V10.125C18 10.4234 17.8815 10.7095 17.6705 10.9205C17.4595 11.1315 17.1734 11.25 16.875 11.25C16.5766 11.25 16.2905 11.1315 16.0795 10.9205C15.8685 10.7095 15.75 10.4234 15.75 10.125V2.25H7.578L2.25225 19.2892C2.29667 20.7515 2.90833 22.1391 3.95778 23.1583C5.00723 24.1775 6.41209 24.7483 7.875 24.75H10.125C13.2255 24.75 15.75 22.2255 15.75 19.125C15.75 18.8266 15.8685 18.5405 16.0795 18.3295C16.2905 18.1185 16.5766 18 16.875 18C17.1734 18 17.4595 18.1185 17.6705 18.3295C17.8815 18.5405 18 18.8266 18 19.125C18 22.2255 20.5245 24.75 23.625 24.75H30.375C33.4777 24.75 36 22.2255 36 19.125C36 18.8266 36.1185 18.5405 36.3295 18.3295C36.5405 18.1185 36.8266 18 37.125 18C37.4234 18 37.7095 18.1185 37.9205 18.3295C38.1315 18.5405 38.25 18.8266 38.25 19.125C38.25 23.4675 34.7175 27 30.375 27H23.625C20.745 27 18.2475 25.4295 16.875 23.1165C16.1851 24.2952 15.1995 25.2734 14.0157 25.9545C12.8318 26.6356 11.4908 26.996 10.125 27H7.875C6.70498 26.9934 5.55146 26.7235 4.5 26.2103Z" fill="#5C2C80"/>
</svg>
