<svg width="16" height="16" viewBox="0 0 16 16" fill="none" xmlns="http://www.w3.org/2000/svg">
<g clip-path="url(#clip0_61_4462)">
<path d="M3.16072 10.5902L5.91557 7.83585L3.19916 5.66285C2.99725 5.50078 2.96432 5.20605 3.12592 5.00367C3.28799 4.80269 3.5819 4.76882 3.7851 4.93043L8.17963 8.44652L12.5742 4.93043C12.7765 4.76882 13.0713 4.80269 13.2333 5.00367C13.3949 5.20605 13.362 5.50078 13.1601 5.66285L10.4442 7.83585L13.1985 10.5902C13.3817 10.7734 13.3817 11.07 13.1985 11.253C13.107 11.3446 12.987 11.3904 12.8671 11.3904C12.7472 11.3904 12.6272 11.3446 12.5357 11.253L9.72323 8.44054C9.71772 8.43503 9.71584 8.42777 9.71092 8.42226L8.4726 9.41284C8.38705 9.48105 8.28311 9.51538 8.17963 9.51538C8.07616 9.51538 7.97221 9.48105 7.88666 9.41284L6.64846 8.42226C6.64342 8.42777 6.64155 8.43503 6.63616 8.44054L3.82366 11.253C3.73201 11.3446 3.61201 11.3904 3.49213 11.3904C3.37225 11.3904 3.25225 11.3446 3.16072 11.253C2.97756 11.07 2.97756 10.7733 3.16072 10.5902Z" fill="#515151"/>
<path d="M3.49219 2.48438H12.8672C14.4204 2.48438 15.6797 3.74367 15.6797 5.29688V10.9219C15.6797 12.4751 14.4204 13.7344 12.8672 13.7344H3.49219C1.93898 13.7344 0.679688 12.4751 0.679688 10.9219V5.29688C0.679688 3.74367 1.93898 2.48438 3.49219 2.48438ZM1.61719 10.9219C1.61719 11.9559 2.45813 12.7969 3.49219 12.7969H12.8672C13.9013 12.7969 14.7422 11.9559 14.7422 10.9219V5.29688C14.7422 4.26281 13.9013 3.42188 12.8672 3.42188H3.49219C2.45813 3.42188 1.61719 4.26281 1.61719 5.29688V10.9219Z" fill="#515151"/>
</g>
<defs>
<clipPath id="clip0_61_4462">
<rect width="15" height="15" fill="white" transform="matrix(-1 0 0 1 15.6797 0.609375)"/>
</clipPath>
</defs>
</svg>
