<svg width="33" height="33" viewBox="0 0 33 33" fill="none" xmlns="http://www.w3.org/2000/svg">
<path d="M12.375 16.1562C11.9192 16.1562 11.482 16.3373 11.1597 16.6597C10.8373 16.982 10.6562 17.4192 10.6562 17.875C10.6562 18.3308 10.8373 18.768 11.1597 19.0903C11.482 19.4127 11.9192 19.5938 12.375 19.5938C12.6007 19.5938 12.8242 19.5493 13.0327 19.4629C13.2413 19.3765 13.4307 19.2499 13.5903 19.0903C13.7499 18.9307 13.8765 18.7413 13.9629 18.5327C14.0493 18.3242 14.0938 18.1007 14.0938 17.875C14.0938 17.6493 14.0493 17.4258 13.9629 17.2173C13.8765 17.0087 13.7499 16.8193 13.5903 16.6597C13.4307 16.5001 13.2413 16.3735 13.0327 16.2871C12.8242 16.2007 12.6007 16.1562 12.375 16.1562ZM20.625 16.1562C20.1692 16.1562 19.732 16.3373 19.4097 16.6597C19.0873 16.982 18.9062 17.4192 18.9062 17.875C18.9062 18.3308 19.0873 18.768 19.4097 19.0903C19.732 19.4127 20.1692 19.5938 20.625 19.5938C21.0808 19.5938 21.518 19.4127 21.8403 19.0903C22.1627 18.768 22.3438 18.3308 22.3438 17.875C22.3438 17.4192 22.1627 16.982 21.8403 16.6597C21.518 16.3373 21.0808 16.1562 20.625 16.1562ZM16.5 2.75C14.6943 2.75 12.9063 3.10565 11.2381 3.79666C9.56988 4.48766 8.05409 5.50048 6.77728 6.77728C4.19866 9.35591 2.75 12.8533 2.75 16.5C2.75 20.1467 4.19866 23.6441 6.77728 26.2227C8.05409 27.4995 9.56988 28.5123 11.2381 29.2033C12.9063 29.8943 14.6943 30.25 16.5 30.25C20.1467 30.25 23.6441 28.8013 26.2227 26.2227C28.8013 23.6441 30.25 20.1467 30.25 16.5C30.25 14.6943 29.8943 12.9063 29.2033 11.2381C28.5123 9.56988 27.4995 8.05409 26.2227 6.77728C24.9459 5.50048 23.4301 4.48766 21.7619 3.79666C20.0937 3.10565 18.3057 2.75 16.5 2.75ZM16.5 27.5C13.5826 27.5 10.7847 26.3411 8.72183 24.2782C6.65893 22.2153 5.5 19.4174 5.5 16.5C5.45875 16.1069 5.45875 15.7106 5.5 15.3175C8.77518 13.8844 11.3675 11.2379 12.7325 7.93375C14.0001 9.73101 15.6809 11.1974 17.6335 12.2096C19.586 13.2218 21.7532 13.7501 23.9525 13.75C24.9975 13.75 26.0287 13.6262 27.0462 13.3925C28.765 19.25 25.4375 25.3412 19.6075 27.0462C18.5625 27.3487 17.545 27.5 16.5 27.5ZM0 2.75C0 2.02065 0.289731 1.32118 0.805456 0.805456C1.32118 0.289731 2.02065 0 2.75 0L8.25 0V2.75H2.75V8.25H0V2.75ZM33 30.25C33 30.9793 32.7103 31.6788 32.1945 32.1945C31.6788 32.7103 30.9793 33 30.25 33H24.75V30.25H30.25V24.75H33V30.25ZM2.75 33C2.02065 33 1.32118 32.7103 0.805456 32.1945C0.289731 31.6788 0 30.9793 0 30.25V24.75H2.75V30.25H8.25V33H2.75ZM30.25 0C30.9793 0 31.6788 0.289731 32.1945 0.805456C32.7103 1.32118 33 2.02065 33 2.75V8.25H30.25V2.75H24.75V0H30.25Z" fill="#523364"/>
</svg>
