<svg width="35" height="38" viewBox="0 0 35 38" fill="none" xmlns="http://www.w3.org/2000/svg">
<path d="M28.8096 4.693C28.654 4.693 28.4984 4.655 28.3623 4.579C24.6283 2.698 21.3999 1.9 17.5297 1.9C13.679 1.9 10.0228 2.793 6.69721 4.579C6.23046 4.826 5.64702 4.655 5.37475 4.199C5.25346 3.97679 5.22625 3.71695 5.29899 3.47535C5.37172 3.23375 5.53859 3.02967 5.76371 2.907C9.38103 0.988 13.3484 0 17.5297 0C21.6722 0 25.2895 0.893 29.2569 2.888C29.7431 3.135 29.9181 3.705 29.6653 4.161C29.5884 4.31939 29.4673 4.45335 29.3159 4.54746C29.1645 4.64158 28.989 4.69203 28.8096 4.693ZM0.979502 14.668C0.800233 14.6696 0.624005 14.6227 0.470365 14.5325C0.316725 14.4422 0.191678 14.3121 0.109095 14.1567C0.0265117 14.0012 -0.0103795 13.8265 0.00251305 13.6518C0.0154056 13.4771 0.0775779 13.3093 0.182134 13.167C2.10748 10.507 4.55793 8.417 7.47513 6.954C13.5818 3.876 21.3999 3.857 27.526 6.935C30.4432 8.398 32.8937 10.469 34.819 13.11C34.8936 13.2121 34.9468 13.3276 34.9755 13.4499C35.0041 13.5722 35.0077 13.6989 34.986 13.8225C34.9643 13.9462 34.9178 14.0644 34.849 14.1704C34.7803 14.2764 34.6908 14.368 34.5856 14.44C34.1383 14.744 33.5354 14.649 33.2243 14.212C31.5211 11.8567 29.2589 9.93997 26.6314 8.626C21.0498 5.833 13.9124 5.833 8.35029 8.645C5.70536 9.975 3.48829 11.875 1.73797 14.269C1.58239 14.535 1.29067 14.668 0.979502 14.668ZM13.1345 37.601C13.007 37.6025 12.8805 37.5779 12.7633 37.5289C12.6461 37.4798 12.5406 37.4073 12.4538 37.316C10.7618 35.663 9.84778 34.599 8.54477 32.3C7.20286 29.963 6.50273 27.113 6.50273 24.054C6.50273 18.411 11.4425 13.813 17.5103 13.813C23.5781 13.813 28.5179 18.411 28.5179 24.054C28.5179 24.586 28.09 25.004 27.5455 25.004C27.0009 25.004 26.5731 24.586 26.5731 24.054C26.5731 19.456 22.5084 15.713 17.5103 15.713C12.5122 15.713 8.44753 19.456 8.44753 24.054C8.44753 26.79 9.06987 29.317 10.2562 31.369C11.5009 33.554 12.3566 34.485 13.8541 35.967C14.2236 36.347 14.2236 36.936 13.8541 37.316C13.6401 37.506 13.3873 37.601 13.1345 37.601ZM27.0787 34.086C24.7644 34.086 22.7224 33.516 21.0498 32.395C18.1521 30.476 16.4212 27.36 16.4212 24.054C16.4212 23.522 16.8491 23.104 17.3936 23.104C17.9381 23.104 18.366 23.522 18.366 24.054C18.366 26.733 19.7663 29.26 22.1389 30.818C23.5197 31.73 25.1339 32.167 27.0787 32.167C27.5455 32.167 28.3234 32.11 29.1013 31.977C29.6264 31.882 30.132 32.224 30.2293 32.756C30.3265 33.269 29.9765 33.763 29.4319 33.858C28.3234 34.067 27.351 34.086 27.0787 34.086ZM23.1697 38C23.0919 38 22.9946 37.981 22.9168 37.962C19.8246 37.126 17.802 36.005 15.6822 33.972C14.3389 32.6762 13.2737 31.1315 12.549 29.4285C11.8244 27.7255 11.4548 25.8983 11.462 24.054C11.462 20.976 14.1458 18.468 17.452 18.468C20.7581 18.468 23.4419 20.976 23.4419 24.054C23.4419 26.087 25.2506 27.74 27.4871 27.74C29.7236 27.74 31.5323 26.087 31.5323 24.054C31.5323 16.891 25.2117 11.077 17.4325 11.077C11.9093 11.077 6.85279 14.079 4.57738 18.734C3.81891 20.273 3.42995 22.078 3.42995 24.054C3.42995 25.536 3.56608 27.873 4.73296 30.913C4.92744 31.407 4.67462 31.958 4.16897 32.129C3.66332 32.319 3.09933 32.053 2.9243 31.578C1.98718 29.1751 1.50609 26.6254 1.5046 24.054C1.5046 21.774 1.9519 19.703 2.82706 17.898C5.41364 12.597 11.1508 9.158 17.4325 9.158C26.2813 9.158 33.4771 15.827 33.4771 24.035C33.4771 27.113 30.7933 29.621 27.4871 29.621C24.181 29.621 21.4971 27.113 21.4971 24.035C21.4971 22.002 19.6885 20.349 17.452 20.349C15.2154 20.349 13.4068 22.002 13.4068 24.035C13.4068 27.284 14.6903 30.324 17.0435 32.604C18.8911 34.39 20.6609 35.378 23.403 36.119C23.9281 36.252 24.2199 36.784 24.0837 37.278C23.9865 37.715 23.5781 38 23.1697 38Z" fill="#523364"/>
</svg>
