<svg width="45" height="45" viewBox="0 0 45 45" fill="none" xmlns="http://www.w3.org/2000/svg">
<path d="M42.1919 22.939C42.1919 21.3203 42.0579 20.139 41.7678 18.9141H22.9062V26.2202H33.9776C33.7545 28.0359 32.5491 30.7703 29.8705 32.6077L29.8329 32.8523L35.7966 37.3799L36.2098 37.4203C40.0044 33.9859 42.1919 28.9327 42.1919 22.939Z" fill="#4285F4"/>
<path d="M22.8995 42.1845C28.3235 42.1845 32.877 40.4344 36.203 37.4157L29.8637 32.6031C28.1674 33.7625 25.8905 34.5718 22.8995 34.5718C17.5871 34.5718 13.0782 31.1375 11.4709 26.3906L11.2353 26.4102L5.03422 31.1134L4.95312 31.3343C8.25665 37.7656 15.0424 42.1845 22.8995 42.1845Z" fill="#34A853"/>
<path d="M11.4731 26.3974C11.049 25.1724 10.8036 23.8598 10.8036 22.5037C10.8036 21.1473 11.049 19.8349 11.4508 18.6099L11.4396 18.349L5.16074 13.5703L4.9553 13.6661C3.59376 16.3349 2.8125 19.3318 2.8125 22.5037C2.8125 25.6755 3.59376 28.6723 4.9553 31.3411L11.4731 26.3974Z" fill="#FBBC05"/>
<path d="M22.8996 10.4249C26.6719 10.4249 29.2165 12.0218 30.6674 13.3563L36.3371 7.93125C32.855 4.75938 28.3237 2.8125 22.8996 2.8125C15.0424 2.8125 8.25667 7.23121 4.95312 13.6624L11.4486 18.6062C13.0783 13.8594 17.5872 10.4249 22.8996 10.4249Z" fill="#EB4335"/>
</svg>
