<svg width="20" height="20" viewBox="0 0 20 20" fill="none" xmlns="http://www.w3.org/2000/svg">
<g clip-path="url(#clip0_173_82)">
<path d="M9.99999 13.3333C11.8409 13.3333 13.3333 11.8409 13.3333 9.99996C13.3333 8.15901 11.8409 6.66663 9.99999 6.66663C8.15904 6.66663 6.66666 8.15901 6.66666 9.99996C6.66666 11.8409 8.15904 13.3333 9.99999 13.3333Z" fill="#523364"/>
<path d="M19.3925 7.84919C18.1 5.74419 15.16 2.21252 10 2.21252C4.84001 2.21252 1.90001 5.74419 0.607512 7.84919C0.207952 8.49545 -0.00369263 9.24023 -0.00369263 10C-0.00369263 10.7598 0.207952 11.5046 0.607512 12.1509C1.90001 14.2559 4.84001 17.7875 10 17.7875C15.16 17.7875 18.1 14.2559 19.3925 12.1509C19.7921 11.5046 20.0037 10.7598 20.0037 10C20.0037 9.24023 19.7921 8.49545 19.3925 7.84919ZM10 15C9.01111 15 8.04441 14.7068 7.22216 14.1574C6.39992 13.608 5.75905 12.8271 5.38061 11.9134C5.00218 10.9998 4.90316 9.99448 5.09609 9.02457C5.28901 8.05467 5.76522 7.16375 6.46448 6.46449C7.16374 5.76523 8.05466 5.28902 9.02456 5.0961C9.99447 4.90317 10.9998 5.00219 11.9134 5.38063C12.8271 5.75906 13.608 6.39993 14.1574 7.22217C14.7068 8.04442 15 9.01112 15 10C14.9987 11.3257 14.4715 12.5967 13.5341 13.5341C12.5967 14.4715 11.3257 14.9987 10 15Z" fill="#523364"/>
</g>
<defs>
<clipPath id="clip0_173_82">
<rect width="20" height="20" fill="white"/>
</clipPath>
</defs>
</svg>
