<svg width="55" height="55" viewBox="0 0 55 55" fill="none" xmlns="http://www.w3.org/2000/svg">
<path d="M21.3731 43.9281C23.6337 43.9281 26.3568 43.851 29.0542 43.5684C29.8505 49.9906 35.348 54.9742 41.9757 54.9742C49.1687 54.9742 55 49.1428 55 41.95C55 34.7571 49.1686 28.9257 41.9757 28.9257C40.8968 28.9257 39.8435 29.0542 38.8417 29.3111C35.8105 26.7165 31.4433 24.5843 27.1276 23.5054V22.4521C27.1276 22.3493 27.2304 22.2981 27.2561 22.2724C30.4929 20.0375 32.4195 16.2355 32.4195 12.0739C32.4195 5.42038 27.4616 0.0257568 21.3733 0.0257568C15.285 0.0257568 10.327 5.44608 10.327 12.0739C10.327 16.2355 12.2537 20.0632 15.4904 22.2724C15.5161 22.2981 15.6189 22.3752 15.6189 22.4521V23.5054C7.93792 25.4321 0 30.7241 0 35.8875C0.0257012 42.8748 13.4096 43.9281 21.3731 43.9281ZM41.9757 31.0836C47.9613 31.0836 52.8165 35.9388 52.8165 41.9244C52.8165 47.91 47.9614 52.7652 41.9757 52.7652C36.4526 52.7652 31.8801 48.6293 31.2121 43.2859C31.16 42.834 31.1343 42.3794 31.135 41.9244C31.135 41.6418 31.1607 41.3592 31.1607 41.0766C31.4947 36.761 34.3718 33.113 38.3022 31.7002C39.0729 31.4176 39.8693 31.2378 40.717 31.135C41.128 31.1093 41.5647 31.0836 41.9757 31.0836ZM16.9547 25.4064L17.8024 25.2266V22.4266C17.8024 21.6559 17.3915 20.9109 16.7492 20.4486C14.1032 18.6247 12.5362 15.4906 12.5362 12.0483C12.5362 6.60226 16.518 2.15808 21.3988 2.15808C26.2797 2.15808 30.2615 6.60226 30.2615 12.0483C30.2615 15.4906 28.6945 18.6504 26.0485 20.4486C25.3807 20.9109 24.9953 21.6559 24.9953 22.4266V25.2266L25.843 25.4064C29.9019 26.3056 33.7552 28.0781 36.5039 30.1332C32.2395 32.1369 29.234 36.4013 29.0028 41.3592C26.5623 41.6161 23.9677 41.7446 21.3988 41.7446C12.1251 41.7446 2.20918 40.2033 2.20918 35.8618C2.2093 32.0856 9.22235 27.1019 16.9547 25.4064Z" fill="#523364"/>
<path d="M37.583 39.3298C37.8142 40.049 38.3022 40.6142 38.9188 41.0766C39.7666 41.6932 40.8198 42.1298 41.7703 42.4895C43.029 42.9776 44.4676 43.5428 44.4676 44.1851C44.4676 45.7007 43.3116 46.2402 42.2071 46.2402C40.7941 46.2402 39.484 45.341 39.484 44.6474C39.484 44.0566 38.9959 43.5685 38.405 43.5685C37.8142 43.5685 37.3261 44.0566 37.3261 44.6474C37.3261 46.4456 39.0216 47.8072 40.8968 48.2696V49.2714C40.8968 49.8623 41.3849 50.3503 41.9757 50.3503C42.5666 50.3503 43.0547 49.8623 43.0547 49.2714V48.3722C45.1869 48.0382 46.6254 46.4198 46.6254 44.2106C46.6254 42.0784 44.4675 41.2307 42.5665 40.4857C41.9242 40.2288 41.3592 39.9976 40.871 39.7665C40.1003 39.3811 39.6122 38.9701 39.6122 38.4563C39.6122 38.3022 39.6636 36.8893 41.8728 36.8893C42.1554 36.8893 42.3866 36.915 42.5921 36.9664C44.0563 37.3004 44.1077 38.7132 44.1077 38.7132C44.1077 39.3041 44.5958 39.7922 45.1866 39.7922C45.7775 39.7922 46.2656 39.3041 46.2656 38.7132C46.2656 37.2746 45.2637 35.348 43.0287 34.8342V33.8838C43.0287 33.2929 42.5407 32.8048 41.9498 32.8048H41.8213C41.2818 32.8562 40.8451 33.3186 40.8451 33.8838V34.8085C40.6654 34.8342 40.5112 34.8599 40.3571 34.9113C38.2249 35.4765 37.4028 37.2233 37.4028 38.482C37.4545 38.7646 37.5059 39.0729 37.583 39.3298Z" fill="#523364"/>
</svg>
