<svg width="20" height="20" viewBox="0 0 20 20" fill="none" xmlns="http://www.w3.org/2000/svg">
<path d="M10.0003 0.85C6.90569 0.85 4.45034 3.97234 4.45034 7.75002C4.45034 11.5277 6.90569 14.65 10.0003 14.65C13.095 14.65 15.5503 11.5277 15.5503 7.75002C15.5503 3.97234 13.095 0.85 10.0003 0.85ZM10.0003 13.45C8.81602 13.45 7.73172 12.8241 6.93875 11.7932C6.1457 10.7622 5.65034 9.33249 5.65034 7.75002C5.65034 6.16755 6.1457 4.73785 6.93875 3.70687C7.73172 2.67599 8.81602 2.05 10.0003 2.05C11.1847 2.05 12.269 2.67599 13.0619 3.70687C13.855 4.73785 14.3503 6.16755 14.3503 7.75002C14.3503 9.33249 13.855 10.7622 13.0619 11.7932C12.269 12.8241 11.1847 13.45 10.0003 13.45Z" fill="#523364" stroke="#515151" stroke-width="0.3"/>
<path d="M13.9933 13.582L13.8999 13.5393L13.8263 13.6109C13.5908 13.8401 13.3397 14.0463 13.0771 14.2323L12.8661 14.3818L13.1006 14.4908C13.9595 14.8899 14.7129 15.2216 15.3555 15.5023L15.3556 15.5023C16.5524 16.0246 17.2081 16.33 17.5669 16.5754C17.7437 16.6962 17.8348 16.7938 17.8844 16.8836C17.9328 16.9711 17.95 17.0659 17.95 17.2003C17.95 17.3583 17.8699 17.5483 17.7274 17.7007C17.5862 17.8518 17.3986 17.9503 17.2 17.9503H2.8C2.60135 17.9503 2.41381 17.8518 2.27261 17.7007C2.1301 17.5483 2.05 17.3583 2.05 17.2003C2.05 17.0659 2.0672 16.9711 2.11554 16.8836C2.16516 16.7938 2.25624 16.6962 2.43302 16.5753C2.79176 16.33 3.44739 16.0246 4.64411 15.5023L4.64412 15.5023C5.28707 15.2217 6.04043 14.8899 6.89913 14.4908L7.13357 14.3818L6.92261 14.2323C6.66002 14.0463 6.40896 13.84 6.17337 13.6109L6.09975 13.5393L6.00637 13.582C5.3169 13.8976 4.71036 14.1625 4.17778 14.395C3.98776 14.478 3.80716 14.5569 3.63556 14.6325C2.98537 14.9189 2.46157 15.1595 2.05394 15.3962C1.64633 15.633 1.34225 15.8728 1.14161 16.1637C0.938312 16.4584 0.85 16.7925 0.85 17.2003C0.85 18.178 1.718 19.1503 2.8 19.1503H17.2C18.282 19.1503 19.15 18.178 19.15 17.2003C19.15 16.7925 19.0617 16.4584 18.8584 16.1637C18.6577 15.8728 18.3537 15.633 17.946 15.3962C17.5384 15.1595 17.0145 14.9189 16.3643 14.6325C16.1926 14.5569 16.012 14.478 15.8219 14.395C15.2893 14.1624 14.6828 13.8976 13.9933 13.582Z" fill="#523364" stroke="#515151" stroke-width="0.3"/>
</svg>
